<?xml version="1.0" encoding="utf-8"?>
<?xml-stylesheet type="text/xsl" href="rss1.xsl"?>
<rss version="2.0" xmlns:atom="http://www.w3.org/2005/Atom" xmlns:content="http://purl.org/rss/1.0/modules/content/" xmlns:dc="http://purl.org/dc/elements/1.1/" xmlns:media="http://search.yahoo.com/mrss/">
<channel>
 <title>Getty</title>
 <link>http://www.gettyimg.com/</link>
 <atom:link href="http://www.gettyimg.com/" rel="self" type="application/rss+xml" />

 
                <item>
                <title><![CDATA[【MASTER &amp; MASTER RIP】MASTER - Charlie XCX 360 MASTER 3072p H264 AAC2.0]]></title>
                <link><![CDATA[https://sharemania.us/threads/charlie-xcx-360-master-3072p-h264-aac2-0.244296/]]></link>
                <description><![CDATA[<article>
<blockquote class="messageText SelectQuoteContainer ugc baseHtml">
<div style="text-align: center"><img src="https://i.imgur.com/dIyb2pa.jpeg" class="bbCodeImage LbImage" alt="[​IMG]" data-url="https://i.imgur.com/dIyb2pa.jpeg" style=""> <br>
<br>
<div class="ToggleTriggerAnchor bbCodeSpoilerContainer">
<button type="button" class="button bbCodeSpoilerButton ToggleTrigger Tooltip JsOnly" data-target="> .SpoilerTarget"><span>Spoiler: <span class="SpoilerTitle">MediaInfo</span></span></button>
<div class="SpoilerTarget bbCodeSpoilerText"><b>General</b><br>
Complete name : Charlie XCX 360 MASTER 3072p H264 AAC2.0.mp4<br>
Format : MPEG-4<br>
Format profile : Base Media / Version 2<br>
Codec ID : mp42 (mp42/mp41)<br>
File size : 2.25 GiB<br>
Duration : 4 min 24 s<br>
Overall bit rate mode : Variable<br>
Overall bit rate : 73.2 Mb/s<br>
Frame rate : 23.976 FPS<br>
Encoded date : 2024-05-13 13:13:49 UTC<br>
Tagged date : 2024-05-13 13:16:47 UTC<br>
TIM : 00:00:00:00<br>
TSC : 24000<br>
TSZ : 1001<br>
<b>Video</b><br>
ID : 1<br>
Format : AVC<br>
Format/Info : Advanced Video Codec<br>
Format profile : Main@L5.2<br>
Format settings : CABAC / 2 Ref Frames<br>
Format settings, CABAC : Yes<br>
Format settings, Reference frames : 2 frames<br>
Format settings, GOP : M=1, N=24<br>
Codec ID : avc1<br>
Codec ID/Info : Advanced Video Coding<br>
Duration : 4 min 24 s<br>
Bit rate : 72.9 Mb/s<br>
Width : 4 096 pixels<br>
Height : 3 072 pixels<br>
Display aspect ratio : 4:3<br>
Frame rate mode : Constant<br>
Frame rate : 23.976 (24000/1001) FPS<br>
Color space : YUV<br>
Chroma subsampling : 4:2:0<br>
Bit depth : 8 bits<br>
Scan type : Progressive<br>
Bits/(Pixel*Frame) : 0.242<br>
Stream size : 2.24 GiB (100%)<br>
Language : English<br>
Encoded date : 2024-05-13 13:13:49 UTC<br>
Tagged date : 2024-05-13 13:13:49 UTC<br>
Color range : Limited<br>
Color primaries : BT.709<br>
Transfer characteristics : BT.709<br>
Matrix coefficients : BT.709<br>
Codec configuration box : avcC<br>
<b>Audio</b><br>
ID : 2<br>
Format : AAC LC<br>
Format/Info : Advanced Audio Codec Low Complexity<br>
Codec ID : mp4a-40-2<br>
Duration : 4 min 24 s<br>
Source duration : 4 min 24 s<br>
Bit rate mode : Variable<br>
Bit rate : 317 kb/s<br>
Maximum bit rate : 535 kb/s<br>
Channel(s) : 2 channels<br>
Channel layout : L R<br>
Sampling rate : 48.0 kHz<br>
Frame rate : 46.875 FPS (1024 SPF)<br>
Compression mode : Lossy<br>
Stream size : 10.0 MiB (0%)<br>
Source stream size : 10.0 MiB (0%)<br>
Language : English<br>
Encoded date : 2024-05-13 13:13:50 UTC<br>
Tagged date : 2024-05-13 13:13:50 UTC</div>
</div><br>
<div class="bbCodeBlock bbCodeVfcHH HiddenContent">
<div class="attribution type">Hidden Content:</div>
<blockquote>You must reply before you can see the hidden data contained here.</blockquote>
</div></div>
<div class="messageTextEndMarker">&nbsp;</div>
</blockquote>
</article>]]></description>
                <author><![CDATA[von_3649]]></author>
                </item>

                </channel></rss>